GIL02_free2_ik
nRows=3
nColumns=375

# SIMM Motion File Header:
name GIL02_free2_ik
datacolumns 375
datarows 3
otherdata 1
range 0.12500000 0.14167000
endheader
time	pelvis_tx	pelvis_ty	pelvis_tz	pelvis_tilt	pelvis_list	pelvis_rotation	hip_flexion_r	hip_adduction_r	hip_rotation_r	knee_angle_r	ankle_angle_r	hip_flexion_l	hip_adduction_l	hip_rotation_l	knee_angle_l	ankle_angle_l	lumbar_extension	lumbar_bending	lumbar_rotation	subtalar_angle_r	mtp_angle_r	subtalar_angle_l	mtp_angle_l	asis_r_px	asis_r_py	asis_r_pz	asis_l_px	asis_l_py	asis_l_pz	midasis_px	midasis_py	midasis_pz	psis_r_px	psis_r_py	psis_r_pz	psis_l_px	psis_l_py	psis_l_pz	hip_r_px	hip_r_py	hip_r_pz	hip_l_px	hip_l_py	hip_l_pz	midhip_px	midhip_py	midhip_pz	epicondLat_r_px	epicondLat_r_py	epicondLat_r_pz	epicondMed_r_px	epicondMed_r_py	epicondMed_r_pz	thighwand_r_px	thighwand_r_py	thighwand_r_pz	upperleg1_r_px	upperleg1_r_py	upperleg1_r_pz	upperleg2_r_px	upperleg2_r_py	upperleg2_r_pz	malleolusLat_r_px	malleolusLat_r_py	malleolusLat_r_pz	malleolusMedv_r_px	malleolusMedv_r_py	malleolusMedv_r_pz	shankwand_r_px	shankwand_r_py	shankwand_r_pz	lowerleg1_r_px	lowerleg1_r_py	lowerleg1_r_pz	knee_r_px	knee_r_py	knee_r_pz	ankle_r_px	ankle_r_py	ankle_r_pz	toe_r_px	toe_r_py	toe_r_pz	epicondLat_l_px	epicondLat_l_py	epicondLat_l_pz	epicondMed_l_px	epicondMed_l_py	epicondMed_l_pz	thighwand_l_px	thighwand_l_py	thighwand_l_pz	upperleg1_l_px	upperleg1_l_py	upperleg1_l_pz	upperleg2_l_px	upperleg2_l_py	upperleg2_l_pz	malleolusLat_l_px	malleolusLat_l_py	malleolusLat_l_pz	malleolusMedv_l_px	malleolusMedv_l_py	malleolusMedv_l_pz	shankwand_l_px	shankwand_l_py	shankwand_l_pz	lowerleg1_l_px	lowerleg1_l_py	lowerleg1_l_pz	knee_l_px	knee_l_py	knee_l_pz	ankle_l_px	ankle_l_py	ankle_l_pz	toe_l_px	toe_l_py	toe_l_pz	subclavicle_r_px	subclavicle_r_py	subclavicle_r_pz	subclavicle_l_px	subclavicle_l_py	subclavicle_l_pz	neck_px	neck_py	neck_pz	sternalnotch_px	sternalnotch_py	sternalnotch_pz	xyphoidprocess_px	xyphoidprocess_py	xyphoidprocess_pz	midhip_tx	midhip_ty	midhip_tz	hip_r_tx	hip_r_ty	hip_r_tz	hip_l_tx	hip_l_ty	hip_l_tz	knee_r_tx	knee_r_ty	knee_r_tz	knee_l_tx	knee_l_ty	knee_l_tz	ankle_r_tx	ankle_r_ty	ankle_r_tz	ankle_l_tx	ankle_l_ty	ankle_l_tz	midasis_tx	midasis_ty	midasis_tz	asis_r_tx	asis_r_ty	asis_r_tz	asis_l_tx	asis_l_ty	asis_l_tz	psis_r_tx	psis_r_ty	psis_r_tz	psis_l_tx	psis_l_ty	psis_l_tz	epicondLat_r_tx	epicondLat_r_ty	epicondLat_r_tz	epicondLat_l_tx	epicondLat_l_ty	epicondLat_l_tz	epicondMed_r_tx	epicondMed_r_ty	epicondMed_r_tz	epicondMed_l_tx	epicondMed_l_ty	epicondMed_l_tz	malleolusLat_r_tx	malleolusLat_r_ty	malleolusLat_r_tz	malleolusLat_l_tx	malleolusLat_l_ty	malleolusLat_l_tz	malleolusMedv_r_tx	malleolusMedv_r_ty	malleolusMedv_r_tz	malleolusMedv_l_tx	malleolusMedv_l_ty	malleolusMedv_l_tz	neck_tx	neck_ty	neck_tz	subclavicle_r_tx	subclavicle_r_ty	subclavicle_r_tz	subclavicle_l_tx	subclavicle_l_ty	subclavicle_l_tz	sternalnotch_tx	sternalnotch_ty	sternalnotch_tz	xyphoidprocess_tx	xyphoidprocess_ty	xyphoidprocess_tz	thighwand_r_tx	thighwand_r_ty	thighwand_r_tz	thighwand_l_tx	thighwand_l_ty	thighwand_l_tz	upperleg1_r_tx	upperleg1_r_ty	upperleg1_r_tz	upperleg1_l_tx	upperleg1_l_ty	upperleg1_l_tz	upperleg2_r_tx	upperleg2_r_ty	upperleg2_r_tz	upperleg2_l_tx	upperleg2_l_ty	upperleg2_l_tz	shankwand_r_tx	shankwand_r_ty	shankwand_r_tz	shankwand_l_tx	shankwand_l_ty	shankwand_l_tz	lowerleg1_r_tx	lowerleg1_r_ty	lowerleg1_r_tz	lowerleg1_l_tx	lowerleg1_l_ty	lowerleg1_l_tz	toe_r_tx	toe_r_ty	toe_r_tz	toe_l_tx	toe_l_ty	toe_l_tz	ground_force_vx	ground_force_vy	ground_force_vz	ground_force_px	ground_force_py	ground_force_pz	ground_force_vx	ground_force_vy	ground_force_vz	ground_force_px	ground_force_py	ground_force_pz	ground_torque_x	ground_torque_y	ground_torque_z	ground_torque_x	ground_torque_y	ground_torque_z	ground_marker_px	ground_marker_py	ground_marker_pz	ground_marker_px	ground_marker_py	ground_marker_pz	ground_marker_px	ground_marker_py	ground_marker_pz	ground_marker_px	ground_marker_py	ground_marker_pz	ground_marker_px	ground_marker_py	ground_marker_pz	ground_marker_px	ground_marker_py	ground_marker_pz	ground_marker_px	ground_marker_py	ground_marker_pz	ground_marker_px	ground_marker_py	ground_marker_pz	ground_marker_px	ground_marker_py	ground_marker_pz	ground_marker_px	ground_marker_py	ground_marker_pz	ground_marker_px	ground_marker_py	ground_marker_pz	ground_marker_px	ground_marker_py	ground_marker_pz	ground_marker_px	ground_marker_py	ground_marker_pz	ground_marker_px	ground_marker_py	ground_marker_pz	ground_marker_px	ground_marker_py	ground_marker_pz	ground_marker_px	ground_marker_py	ground_marker_pz	ground_marker_px	ground_marker_py	ground_marker_pz	ground_marker_px	ground_marker_py	ground_marker_pz	ground_marker_px	ground_marker_py	ground_marker_pz	ground_marker_px	ground_marker_py	ground_marker_pz	ground_marker_px	ground_marker_py	ground_marker_pz	ground_marker_px	ground_marker_py	ground_marker_pz	ground_marker_px	ground_marker_py	ground_marker_pz	ground_marker_px	ground_marker_py	ground_marker_pz	ground_marker_px	ground_marker_py	ground_marker_pz	ground_marker_px	ground_marker_py	ground_marker_pz	ground_marker_px	ground_marker_py	ground_marker_pz	ground_marker_px	ground_marker_py	ground_marker_pz	ground_marker_px	ground_marker_py	ground_marker_pz	ground_marker_px	ground_marker_py	ground_marker_pz	ground_marker_px	ground_marker_py	ground_marker_pz	ground_marker_px	ground_marker_py	ground_marker_pz	ground_marker_px	ground_marker_py	ground_marker_pz	ground_marker_px	ground_marker_py	ground_marker_pz	ground_marker_px	ground_marker_py	ground_marker_pz	ground_marker_px	ground_marker_py	ground_marker_pz	ground_marker_px	ground_marker_py	ground_marker_pz
      0.12500000	      1.17601775	      0.93361944	     -0.21941109	     -0.18856548	     -2.04655627	      1.72776384	     20.02079851	      2.35507217	      7.16430811	    -15.56679645	     -3.44081306	     -9.58207945	     -2.70681216	     -0.68708174	    -35.20990774	    -26.46938864	      0.96556986	      5.32691326	      0.81664695	      0.00000000	      0.00000000	      0.00000000	      0.00000000	      1.22590549	      0.93780064	     -0.10362882	      1.22096861	      0.93577974	     -0.34172878	      1.18903624	      0.93356257	     -0.21980353	      1.03850499	      0.99043220	     -0.18695700	      1.04143200	      0.98621695	     -0.27277930	      1.11242337	      0.87521695	     -0.13763597	      1.10772082	      0.86968663	     -0.29283036	      1.11007209	      0.87245179	     -0.21523317	      1.28988765	      0.48407309	     -0.07445733	      1.24289014	      0.47523263	     -0.17583003	      1.31097110	      0.61174002	     -0.01339477	      1.28841426	      0.67325959	     -0.08353955	      1.30873384	      0.58806592	     -0.10294802	      1.27487889	      0.06740086	     -0.08833494	      1.28392362	      0.08206145	     -0.15810297	      1.30322965	      0.20305075	     -0.00661055	      1.28069384	      0.16905422	     -0.07647657	      1.25242256	      0.47889225	     -0.14479096	      1.28277207	      0.08252740	     -0.13403229	      1.40554405	      0.04385767	     -0.12500209	      1.04219496	      0.43717033	     -0.36610913	      1.03836708	      0.44276686	     -0.25565182	      1.21119555	      0.51055758	     -0.30926739	      1.15532086	      0.58167657	     -0.34678768	      1.12061759	      0.50194216	     -0.34644051	      0.72629362	      0.18001215	     -0.32832402	      0.75684975	      0.16949856	     -0.26955705	      0.83909044	      0.25917986	     -0.41769967	      0.80516907	      0.24272423	     -0.34561698	      1.03695112	      0.45232460	     -0.29584596	      0.75565434	      0.17129271	     -0.28991938	      0.75699309	      0.05040138	     -0.32650507	      1.11834228	      1.33571335	     -0.14578468	      1.12627507	      1.34616532	     -0.25331755	      0.98510567	      1.40001801	     -0.19442200	      1.10432372	      1.34677395	     -0.19739728	      1.20392761	      1.19407771	     -0.21669909	      1.11216800	      0.88226900	     -0.20784500	      1.10928100	      0.86297600	     -0.13635500	      1.10422900	      0.85705600	     -0.28658300	      1.25193300	      0.47403400	     -0.13668900	      1.03326000	      0.44325900	     -0.29003300	      1.28003800	      0.07005000	     -0.15318200	      0.75232700	      0.16227200	     -0.28328900	      1.19315600	      0.94668300	     -0.21779000	      1.19713000	      0.95134000	     -0.09961300	      1.18918200	      0.94202600	     -0.33596800	      1.00671500	      0.98768000	     -0.17803200	      1.01015400	      0.98418200	     -0.26352400	      1.26136600	      0.47744400	     -0.07905500	      1.03122800	      0.44409100	     -0.34799200	      1.22446300	      0.46927900	     -0.19198700	      1.05308200	      0.44162700	     -0.22485000	      1.27340700	      0.06798000	     -0.11379000	      0.73635800	      0.17746600	     -0.31546300	      1.29070300	      0.08483000	     -0.18115700	      0.76350200	      0.16970700	     -0.25648600	      0.98902300	      1.40716200	     -0.19511400	      1.11534000	      1.33083400	     -0.14454800	      1.12409900	      1.34235400	     -0.25111700	      1.10221700	      1.34380300	     -0.19581000	      1.18845300	      1.18359800	     -0.21763400	      1.27422300	      0.58142100	     -0.00470000	      1.21145900	      0.51395800	     -0.31114500	      1.26310700	      0.65044400	     -0.06767700	      1.14609800	      0.58107200	     -0.34081200	      1.28358100	      0.56821100	     -0.09649400	      1.11471300	      0.49892500	     -0.33114200	      1.29596100	      0.19951900	     -0.02548500	      0.84278200	      0.26593800	     -0.40355500	      1.27998500	      0.16646700	     -0.09894900	      0.80912300	      0.24515600	     -0.33191300	      1.40627100	      0.04189800	     -0.13742700	      0.77426900	      0.04488400	     -0.27141100	   -110.00412517	    648.69336161	    -24.04158902	      1.29132166	      0.00000000	     -0.15210434	      0.00000000	      0.00000000	      0.00000000	      1.75258521	      0.00000000	     -0.22132043	      0.00000000	     -1.31291797	      0.00000000	      0.00000000	      0.00000000	      0.00000000	      1.11216784	      0.88226855	     -0.20784473	      1.10928142	      0.86297619	     -0.13635509	      1.10422909	      0.85705602	     -0.28658295	      1.25193286	      0.47403419	     -0.13668872	      1.03326046	      0.44325873	     -0.29003310	      1.28003764	      0.07005003	     -0.15318172	      0.75232726	      0.16227247	     -0.28328928	      1.19315612	      0.94668281	     -0.21779007	      1.19713044	      0.95133996	     -0.09961252	      1.18918180	      0.94202572	     -0.33596763	      1.00671506	      0.98768038	     -0.17803234	      1.01015449	      0.98418230	     -0.26352406	      1.26136577	      0.47744441	     -0.07905503	      1.03122795	      0.44409057	     -0.34799153	      1.22446251	      0.46927875	     -0.19198661	      1.05308163	      0.44162744	     -0.22484952	      1.27340651	      0.06798049	     -0.11378951	      0.73635834	      0.17746620	     -0.31546289	      1.29070258	      0.08483004	     -0.18115732	      0.76350188	      0.16970700	     -0.25648612	      0.98902309	      1.40716207	     -0.19511400	      1.11534035	      1.33083415	     -0.14454833	      1.12409949	      1.34235442	     -0.25111678	      1.10221732	      1.34380317	     -0.19580995	      1.18845296	      1.18359780	     -0.21763447	      1.27422345	      0.58142132	     -0.00469982	      1.21145916	      0.51395833	     -0.31114486	      1.26310706	      0.65044373	     -0.06767715	      1.14609838	      0.58107197	     -0.34081182	      1.28358102	      0.56821078	     -0.09649368	      1.11471343	      0.49892533	     -0.33114234	      1.29596055	      0.19951867	     -0.02548547	      0.84278226	      0.26593769	     -0.40355453	      1.27998471	      0.16646677	     -0.09894942	      0.80912322	      0.24515615	     -0.33191347	      1.40627110	      0.04189756	     -0.13742693	      0.77426857	      0.04488358	     -0.27141148
      0.13333000	      1.18705400	      0.93539499	     -0.21912881	     -0.22406249	     -2.07277373	      1.81985166	     19.16617313	      2.47057432	      7.92922615	    -15.24434407	     -2.89401443	     -8.26037357	     -3.07259658	     -1.34031173	    -37.49209501	    -29.08757620	      1.06443409	      5.48833518	      0.70425589	      0.00000000	      0.00000000	      0.00000000	      0.00000000	      1.23713068	      0.93959463	     -0.10342880	      1.23180957	      0.93746963	     -0.34151958	      1.20007181	      0.93532913	     -0.21954216	      1.04963210	      0.99231557	     -0.18647939	      1.05241826	      0.98805960	     -0.27230437	      1.12355168	      0.87707252	     -0.13722516	      1.11859585	      0.87147535	     -0.29240927	      1.12107376	      0.87427394	     -0.21481721	      1.29586624	      0.48344756	     -0.07521130	      1.24728692	      0.47499783	     -0.17586911	      1.31978639	      0.61097541	     -0.01490819	      1.29717344	      0.67260315	     -0.08493986	      1.31589897	      0.58704218	     -0.10433604	      1.27646180	      0.06706473	     -0.08779778	      1.28463278	      0.08146751	     -0.15772713	      1.30733529	      0.20262371	     -0.00684021	      1.28344992	      0.16868384	     -0.07628417	      1.25723926	      0.47862117	     -0.14496879	      1.28383679	      0.08200266	     -0.13364350	      1.40670047	      0.04329253	     -0.12616729	      1.06178619	      0.43822044	     -0.36854472	      1.05924449	      0.44281886	     -0.25800431	      1.22982255	      0.51489874	     -0.31320854	      1.17190405	      0.58505697	     -0.34941537	      1.13899188	      0.50456603	     -0.34931197	      0.74156667	      0.18554996	     -0.32824271	      0.77271138	      0.17410084	     -0.26996155	      0.85453657	      0.26335386	     -0.41859209	      0.82129203	      0.24699563	     -0.34617268	      1.05735039	      0.45217709	     -0.29811630	      0.77127738	      0.17605579	     -0.29029365	      0.76470438	      0.05517835	     -0.32635549	      1.12913753	      1.33740185	     -0.14458294	      1.13708849	      1.34812279	     -0.25208799	      0.99585903	      1.40171284	     -0.19309695	      1.11512261	      1.34857653	     -0.19617195	      1.21485989	      1.19601169	     -0.21582098	      1.12378000	      0.88460600	     -0.20712300	      1.12050000	      0.86452700	     -0.13509600	      1.11507100	      0.85846700	     -0.28530600	      1.25698400	      0.47409300	     -0.13583400	      1.05331700	      0.44248600	     -0.29082700	      1.28056900	      0.06999500	     -0.15325000	      0.76777900	      0.16665500	     -0.28484200	      1.20420700	      0.94812000	     -0.21681900	      1.20847200	      0.95288200	     -0.09880800	      1.19994200	      0.94335900	     -0.33483000	      1.01779600	      0.98936000	     -0.17687500	      1.02080100	      0.98559300	     -0.26236600	      1.26733700	      0.47760300	     -0.07836400	      1.05045200	      0.44368000	     -0.34874400	      1.22797400	      0.46978700	     -0.19020600	      1.07412100	      0.43963800	     -0.22581200	      1.27389300	      0.06790800	     -0.11386700	      0.75198000	      0.18231500	     -0.31687500	      1.29101200	      0.08479400	     -0.18124800	      0.77971800	      0.17295400	     -0.25843700	      0.99951200	      1.40835200	     -0.19383500	      1.12662400	      1.33237300	     -0.14372700	      1.13495900	      1.34396100	     -0.24974600	      1.11303700	      1.34544800	     -0.19452700	      1.20013500	      1.18549100	     -0.21688400	      1.28291700	      0.58195100	     -0.00443400	      1.23001600	      0.51612000	     -0.31400100	      1.27240300	      0.65100400	     -0.06771200	      1.16240600	      0.58169700	     -0.34208900	      1.29068100	      0.56790200	     -0.09632100	      1.13278200	      0.49916800	     -0.33267100	      1.29787600	      0.19877600	     -0.02526400	      0.85942500	      0.26920600	     -0.40483200	      1.28151800	      0.16615100	     -0.09882400	      0.82642500	      0.24749700	     -0.33371900	      1.40640100	      0.04166900	     -0.13757000	      0.78335100	      0.04775300	     -0.27318100	   -106.70773737	    665.27102761	    -25.72843846	      1.29177673	      0.00000000	     -0.15184436	      0.00000000	      0.00000000	      0.00000000	      1.75399902	      0.00000000	     -0.22140390	      0.00000000	     -1.35198877	      0.00000000	      0.00000000	      0.00000000	      0.00000000	      1.12378001	      0.88460577	     -0.20712303	      1.12049961	      0.86452687	     -0.13509649	      1.11507130	      0.85846680	     -0.28530568	      1.25698447	      0.47409305	     -0.13583368	      1.05331731	      0.44248581	     -0.29082748	      1.28056920	      0.06999479	     -0.15325046	      0.76777935	      0.16665508	     -0.28484198	      1.20420718	      0.94812047	     -0.21681903	      1.20847201	      0.95288157	     -0.09880763	      1.19994247	      0.94335943	     -0.33483043	      1.01779592	      0.98935974	     -0.17687531	      1.02080071	      0.98559260	     -0.26236591	      1.26733673	      0.47760335	     -0.07836403	      1.05045199	      0.44367999	     -0.34874436	      1.22797418	      0.46978664	     -0.19020604	      1.07412076	      0.43963817	     -0.22581178	      1.27389288	      0.06790768	     -0.11386684	      0.75198013	      0.18231523	     -0.31687543	      1.29101157	      0.08479353	     -0.18124846	      0.77971786	      0.17295432	     -0.25843689	      0.99951184	      1.40835154	     -0.19383463	      1.12662411	      1.33237255	     -0.14372711	      1.13495922	      1.34396100	     -0.24974552	      1.11303735	      1.34544814	     -0.19452740	      1.20013535	      1.18549132	     -0.21688369	      1.28291678	      0.58195126	     -0.00443419	      1.23001635	      0.51611990	     -0.31400126	      1.27240300	      0.65100408	     -0.06771214	      1.16240585	      0.58169734	     -0.34208855	      1.29068148	      0.56790203	     -0.09632070	      1.13278210	      0.49916780	     -0.33267105	      1.29787600	      0.19877613	     -0.02526428	      0.85942543	      0.26920649	     -0.40483218	      1.28151810	      0.16615134	     -0.09882364	      0.82642502	      0.24749707	     -0.33371899	      1.40640056	      0.04166884	     -0.13757029	      0.78335100	      0.04775304	     -0.27318102
      0.14167000	      1.19745028	      0.93688213	     -0.21910893	     -0.24539494	     -2.07681907	      2.00615071	     18.25745411	      2.48775683	      8.62305125	    -14.76422848	     -2.43144308	     -6.86143129	     -3.36893987	     -1.76747765	    -39.80695352	    -30.43224435	      1.10062912	      5.64866857	      0.37378352	      0.00000000	      0.00000000	      0.00000000	      0.00000000	      1.24790472	      0.94106375	     -0.10357250	      1.24180889	      0.93892791	     -0.34164461	      1.21046663	      0.93680985	     -0.21956458	      1.06016310	      0.99387189	     -0.18601641	      1.06266826	      0.98960971	     -0.27184975	      1.13418588	      0.87859541	     -0.13699596	      1.12872304	      0.87299191	     -0.29216282	      1.13145446	      0.87579366	     -0.21457939	      1.30101943	      0.48249302	     -0.07577422	      1.25087660	      0.47442519	     -0.17569393	      1.32784615	      0.60985879	     -0.01635805	      1.30522800	      0.67156243	     -0.08632117	      1.32229650	      0.58563350	     -0.10561940	      1.27803044	      0.06647576	     -0.08696004	      1.28529165	      0.08063684	     -0.15703898	      1.31114753	      0.20199096	     -0.00682000	      1.28598413	      0.16806532	     -0.07581814	      1.26120828	      0.47802533	     -0.14493158	      1.28485188	      0.08123912	     -0.13294781	      1.40780901	      0.04255235	     -0.12705477	      1.08142768	      0.43902874	     -0.37073049	      1.07998079	      0.44281592	     -0.26013956	      1.24818172	      0.51932495	     -0.31666128	      1.18821715	      0.58832245	     -0.35175058	      1.15723536	      0.50706896	     -0.35186048	      0.75720745	      0.19062982	     -0.32783980	      0.78883928	      0.17838651	     -0.26998396	      0.87037973	      0.26700555	     -0.41914938	      0.83772004	      0.25084335	     -0.34642050	      1.07767684	      0.45188038	     -0.30019024	      0.78719978	      0.18046380	     -0.29028838	      0.77549109	      0.05990540	     -0.32611566	      1.13949008	      1.33871233	     -0.14325718	      1.14770731	      1.34973455	     -0.25071172	      1.00635033	      1.40320182	     -0.19191501	      1.12560484	      1.35003713	     -0.19484851	      1.22534325	      1.19749726	     -0.21468476	      1.13386700	      0.88533400	     -0.20633200	      1.13154900	      0.86588400	     -0.13409400	      1.12551300	      0.85976700	     -0.28427800	      1.26144600	      0.47404800	     -0.13482800	      1.07362700	      0.44198000	     -0.29159400	      1.28112900	      0.06995100	     -0.15317800	      0.78379300	      0.17117100	     -0.28599600	      1.21495800	      0.94941300	     -0.21618700	      1.21969700	      0.95421500	     -0.09828900	      1.21021900	      0.94461100	     -0.33408500	      1.02869400	      0.99083900	     -0.17557700	      1.03120600	      0.98687700	     -0.26103200	      1.27270600	      0.47767400	     -0.07753700	      1.07003200	      0.44344000	     -0.34946400	      1.23295500	      0.47073700	     -0.18922500	      1.09547900	      0.43710800	     -0.22746000	      1.27424000	      0.06782800	     -0.11383300	      0.76821600	      0.18718200	     -0.31796500	      1.29102700	      0.08467500	     -0.18116500	      0.79611500	      0.17698300	     -0.25986200	      1.00957000	      1.40982900	     -0.19249600	      1.13746700	      1.33407900	     -0.14255000	      1.14568700	      1.34563800	     -0.24861600	      1.12373800	      1.34703400	     -0.19340700	      1.21143600	      1.18741300	     -0.21569300	      1.29110600	      0.58241000	     -0.00410600	      1.24859000	      0.51872700	     -0.31653900	      1.28074200	      0.65129700	     -0.06707600	      1.17882200	      0.58262700	     -0.34324300	      1.29778200	      0.56809400	     -0.09595500	      1.15131800	      0.49911500	     -0.33434800	      1.29908000	      0.19806900	     -0.02479600	      0.87676500	      0.27231800	     -0.40588500	      1.28187700	      0.16600000	     -0.09815200	      0.84412500	      0.25008700	     -0.33526100	      1.40641900	      0.04149500	     -0.13765400	      0.79478200	      0.05115500	     -0.27564000	   -101.80899944	    677.09671717	    -28.63062229	      1.29221594	      0.00000000	     -0.15145740	      0.00000000	      0.00000000	      0.00000000	      1.75544458	      0.00000000	     -0.22154703	      0.00000000	     -1.36220532	      0.00000000	      0.00000000	      0.00000000	      0.00000000	      1.13386667	      0.88533366	     -0.20633236	      1.13154936	      0.86588359	     -0.13409416	      1.12551272	      0.85976654	     -0.28427780	      1.26144648	      0.47404835	     -0.13482840	      1.07362700	      0.44197986	     -0.29159394	      1.28112948	      0.06995055	     -0.15317796	      0.78379285	      0.17117129	     -0.28599566	      1.21495819	      0.94941342	     -0.21618670	      1.21969700	      0.95421547	     -0.09828875	      1.21021926	      0.94461131	     -0.33408466	      1.02869356	      0.99083859	     -0.17557718	      1.03120649	      0.98687744	     -0.26103216	      1.27270627	      0.47767371	     -0.07753684	      1.07003248	      0.44343966	     -0.34946406	      1.23295510	      0.47073713	     -0.18922526	      1.09547901	      0.43710849	     -0.22746000	      1.27424014	      0.06782837	     -0.11383291	      0.76821601	      0.18718161	     -0.31796491	      1.29102671	      0.08467458	     -0.18116479	      0.79611450	      0.17698289	     -0.25986236	      1.00957036	      1.40982854	     -0.19249593	      1.13746715	      1.33407867	     -0.14254966	      1.14568746	      1.34563816	     -0.24861614	      1.12373793	      1.34703422	     -0.19340667	      1.21143603	      1.18741298	     -0.21569251	      1.29110646	      0.58240950	     -0.00410565	      1.24859047	      0.51872724	     -0.31653950	      1.28074205	      0.65129685	     -0.06707597	      1.17882180	      0.58262742	     -0.34324330	      1.29778171	      0.56809384	     -0.09595489	      1.15131831	      0.49911529	     -0.33434781	      1.29908049	      0.19806908	     -0.02479604	      0.87676543	      0.27231824	     -0.40588465	      1.28187716	      0.16600004	     -0.09815165	      0.84412539	      0.25008717	     -0.33526087	      1.40641916	      0.04149470	     -0.13765410	      0.79478246	      0.05115450	     -0.27564004
